<svg width="544" height="544" viewBox="0 0 544 544" fill="none" xmlns="http://www.w3.org/2000/svg">
<rect width="544" height="544" rx="200" fill="#D7EBF4"/>
<path d="M384.054 373C387.536 373 390.768 374.082 393.429 375.921V398H385.664C384.825 395.615 383.168 393.604 380.988 392.323C378.808 391.042 376.245 390.574 373.753 391.001C371.261 391.429 369 392.725 367.372 394.66C365.744 396.594 364.853 399.043 364.857 401.571C364.863 404.095 365.759 406.535 367.387 408.462C369.016 410.389 371.272 411.68 373.759 412.107C376.246 412.534 378.803 412.069 380.981 410.795C383.159 409.521 384.818 407.52 385.664 405.143H393.429V469.425C390.342 471.751 386.58 473.007 382.714 473H381.607C377.802 473 374.096 471.784 371.03 469.529C367.964 467.275 365.699 464.1 364.564 460.468L363.961 458.525C359.261 457.877 354.955 455.55 351.837 451.975C348.719 448.399 347.001 443.815 347 439.071V437.286C346.994 432.011 348.943 426.921 352.471 423H366.643C368.064 423 369.426 423.564 370.431 424.569C371.436 425.574 372 426.936 372 428.357V430.764C369.615 431.604 367.604 433.26 366.323 435.44C365.042 437.62 364.574 440.183 365.001 442.676C365.429 445.168 366.725 447.428 368.66 449.056C370.594 450.684 373.043 451.575 375.571 451.571C378.095 451.566 380.535 450.67 382.462 449.041C384.389 447.413 385.68 445.156 386.107 442.67C386.534 440.183 386.069 437.625 384.795 435.447C383.521 433.269 381.52 431.611 379.143 430.764V428.357C379.143 425.042 377.826 421.863 375.482 419.518C373.137 417.174 369.958 415.857 366.643 415.857H354.157C351.827 412.772 350.568 409.01 350.571 405.143C350.572 400.535 352.354 396.106 355.544 392.782C358.734 389.457 363.086 387.494 367.689 387.304C368.224 383.343 370.178 379.711 373.187 377.08C376.196 374.45 380.057 373 384.054 373ZM409.946 373C413.943 373 417.804 374.45 420.813 377.08C423.822 379.711 425.776 383.343 426.311 387.304C429.936 387.456 433.428 388.708 436.324 390.895C439.219 393.081 441.38 396.098 442.518 399.543C443.656 402.988 443.718 406.698 442.695 410.179C441.673 413.66 439.614 416.747 436.793 419.029C439.912 420.946 442.488 423.631 444.275 426.827C446.062 430.023 447 433.624 447 437.286V439.071C446.999 443.815 445.281 448.399 442.163 451.975C439.045 455.55 434.739 457.877 430.039 458.525L429.436 460.468C428.301 464.1 426.036 467.275 422.97 469.529C419.904 471.784 416.198 473 412.393 473H411.286C407.42 473.007 403.658 471.751 400.571 469.425V444.429H409.5C412.815 444.429 415.995 443.112 418.339 440.767C420.683 438.423 422 435.244 422 431.929V429.518C424.383 428.677 426.391 427.02 427.67 424.841C428.949 422.661 429.416 420.1 428.988 417.61C428.561 415.119 427.266 412.861 425.334 411.233C423.401 409.605 420.955 408.713 418.429 408.714C415.902 408.713 413.456 409.605 411.523 411.233C409.591 412.861 408.296 415.119 407.869 417.61C407.441 420.1 407.908 422.661 409.187 424.841C410.466 427.02 412.474 428.677 414.857 429.518V431.929C414.857 433.349 414.293 434.712 413.288 435.717C412.283 436.721 410.921 437.286 409.5 437.286H400.571V375.921C403.326 374.015 406.597 372.995 409.946 373ZM375.571 437.286C376.519 437.286 377.427 437.662 378.097 438.332C378.767 439.002 379.143 439.91 379.143 440.857C379.143 441.804 378.767 442.713 378.097 443.383C377.427 444.052 376.519 444.429 375.571 444.429C374.624 444.429 373.716 444.052 373.046 443.383C372.376 442.713 372 441.804 372 440.857C372 439.91 372.376 439.002 373.046 438.332C373.716 437.662 374.624 437.286 375.571 437.286ZM418.429 415.857C419.376 415.857 420.284 416.233 420.954 416.903C421.624 417.573 422 418.481 422 419.429C422 420.376 421.624 421.284 420.954 421.954C420.284 422.624 419.376 423 418.429 423C417.481 423 416.573 422.624 415.903 421.954C415.233 421.284 414.857 420.376 414.857 419.429C414.857 418.481 415.233 417.573 415.903 416.903C416.573 416.233 417.481 415.857 418.429 415.857ZM375.571 398C376.519 398 377.427 398.376 378.097 399.046C378.767 399.716 379.143 400.624 379.143 401.571C379.143 402.519 378.767 403.427 378.097 404.097C377.427 404.767 376.519 405.143 375.571 405.143C374.624 405.143 373.716 404.767 373.046 404.097C372.376 403.427 372 402.519 372 401.571C372 400.624 372.376 399.716 373.046 399.046C373.716 398.376 374.624 398 375.571 398Z" fill="#163252"/>
<path d="M357.52 309.973C360.844 304.262 360.826 297.194 357.468 291.502L302.737 198.783L257.004 121.878C249.942 110.002 232.782 110.05 225.788 121.966L186.511 188.872C183.163 194.575 183.163 201.652 186.511 207.355L235.911 291.506C239.251 297.194 239.26 304.253 235.933 309.952L197.027 376.59C189.941 388.727 198.664 404 212.684 404H292.326C298.773 404 304.737 400.568 307.99 394.981L357.52 309.973Z" fill="#163252"/>
</svg>
